<svg xmlns="http://www.w3.org/2000/svg" width="390" height="844" viewBox="0 0 390 844" role="img" aria-label="Moodora focus coach screen">
  <rect width="390" height="844" rx="34" fill="#fff8f5"/>
  <text x="28" y="40" font-family="Arial, sans-serif" font-size="15" font-weight="800" fill="#202231">Today's Progress</text>
  <rect x="28" y="54" width="322" height="10" rx="5" fill="#fde8e2"/>
  <text x="28" y="154" font-family="Arial, sans-serif" font-size="22" font-weight="800" fill="#202231">Focus Coach</text>
  <rect x="256" y="126" width="96" height="42" rx="21" fill="#f8f2ef" stroke="#ead8d2"/>
  <text x="304" y="153" text-anchor="middle" font-family="Arial, sans-serif" font-size="13" font-weight="700" fill="#202231">Refresh</text>
  <rect x="28" y="178" width="334" height="104" rx="8" fill="#ffffff" stroke="#f2d9d3"/>
  <text x="132" y="218" font-family="Arial, sans-serif" font-size="15" font-weight="700" fill="#202231">Focus Score</text>
  <text x="132" y="242" font-family="Arial, sans-serif" font-size="13" fill="#f3654d">0 / 100</text>
  <rect x="28" y="296" width="334" height="238" rx="8" fill="#ffffff" stroke="#f2d9d3"/>
  <text x="94" y="336" font-family="Arial, sans-serif" font-size="16" font-weight="800" fill="#202231">Recommended Focus</text>
  <text x="44" y="388" font-family="Arial, sans-serif" font-size="22" font-weight="800" fill="#202231">administration systemes</text>
  <text x="44" y="418" font-family="Arial, sans-serif" font-size="13" fill="#202231">Reason: high priority, due this week,</text>
  <text x="44" y="438" font-family="Arial, sans-serif" font-size="13" fill="#202231">1/3 Pomodoros completed.</text>
  <rect x="44" y="480" width="286" height="40" rx="20" fill="#e95c43"/>
  <text x="187" y="506" text-anchor="middle" font-family="Arial, sans-serif" font-size="13" font-weight="800" fill="#ffffff">Start recommended focus</text>
  <rect x="28" y="548" width="334" height="42" rx="8" fill="#ffffff" stroke="#f2d9d3"/>
  <rect x="28" y="604" width="334" height="42" rx="8" fill="#ffffff" stroke="#f2d9d3"/>
  <rect y="760" width="390" height="84" fill="#fff3ee"/>
</svg>
