<svg xmlns="http://www.w3.org/2000/svg" width="390" height="844" viewBox="0 0 390 844" role="img" aria-label="Moodora profile screen">
  <rect width="390" height="844" rx="34" fill="#fff8f5"/>
  <text x="195" y="96" text-anchor="middle" font-family="Arial, sans-serif" font-size="22" font-weight="800" fill="#202231">Profile</text>
  <text x="195" y="168" text-anchor="middle" font-family="Arial, sans-serif" font-size="44">😌</text>
  <text x="195" y="226" text-anchor="middle" font-family="Arial, sans-serif" font-size="22" font-weight="800" fill="#202231">Asmaa</text>
  <rect x="40" y="250" width="152" height="64" rx="8" fill="#ffffff" stroke="#f2d9d3"/>
  <rect x="204" y="250" width="152" height="64" rx="8" fill="#ffffff" stroke="#f2d9d3"/>
  <text x="116" y="280" text-anchor="middle" font-family="Arial, sans-serif" font-size="22" font-weight="800" fill="#202231">3</text>
  <text x="280" y="280" text-anchor="middle" font-family="Arial, sans-serif" font-size="22" font-weight="800" fill="#202231">0d</text>
  <rect x="40" y="330" width="316" height="48" rx="10" fill="#f1e9e4"/>
  <text x="56" y="360" font-family="Arial, sans-serif" font-size="14" fill="#202231">Asmaa</text>
  <rect x="40" y="392" width="316" height="48" rx="10" fill="#f1e9e4"/>
  <circle cx="68" cy="474" r="22" fill="#ffffff" stroke="#f2d9d3"/>
  <text x="68" y="482" text-anchor="middle" font-family="Arial, sans-serif" font-size="22">🙂</text>
  <circle cx="126" cy="474" r="22" fill="#ffffff" stroke="#f2d9d3"/>
  <text x="126" y="482" text-anchor="middle" font-family="Arial, sans-serif" font-size="22">😎</text>
  <circle cx="184" cy="474" r="22" fill="#ffffff" stroke="#f2d9d3"/>
  <text x="184" y="482" text-anchor="middle" font-family="Arial, sans-serif" font-size="22">🚀</text>
  <rect x="40" y="564" width="316" height="68" rx="8" fill="#ffffff" stroke="#f2d9d3"/>
  <text x="56" y="604" font-family="Arial, sans-serif" font-size="13" fill="#202231">Daily goal</text>
  <rect x="40" y="646" width="316" height="68" rx="8" fill="#ffffff" stroke="#f2d9d3"/>
  <text x="56" y="686" font-family="Arial, sans-serif" font-size="13" fill="#202231">Work duration</text>
  <rect x="40" y="734" width="316" height="42" rx="21" fill="#e95c43"/>
  <text x="198" y="760" text-anchor="middle" font-family="Arial, sans-serif" font-size="13" font-weight="800" fill="#ffffff">Save profile</text>
</svg>
