<svg xmlns="http://www.w3.org/2000/svg" width="390" height="844" viewBox="0 0 390 844" role="img" aria-label="Moodora settings screen">
  <rect width="390" height="844" rx="34" fill="#fff8f5"/>
  <text x="195" y="52" text-anchor="middle" font-family="Arial, sans-serif" font-size="23" font-weight="800" fill="#202231">Settings</text>
  <text x="195" y="78" text-anchor="middle" font-family="Arial, sans-serif" font-size="13" fill="#202231">Tune your tomato timer</text>
  <rect x="24" y="94" width="342" height="40" rx="20" fill="#f8f2ef" stroke="#ead8d2"/>
  <text x="195" y="119" text-anchor="middle" font-family="Arial, sans-serif" font-size="13" font-weight="800" fill="#202231">Profile</text>
  <rect x="24" y="146" width="342" height="70" rx="8" fill="#ffffff" stroke="#f2d9d3"/>
  <text x="38" y="176" font-family="Arial, sans-serif" font-size="15" font-weight="800" fill="#202231">Work duration</text>
  <text x="306" y="184" text-anchor="middle" font-family="Arial, sans-serif" font-size="16" font-weight="800" fill="#202231">25</text>
  <rect x="24" y="228" width="342" height="70" rx="8" fill="#ffffff" stroke="#f2d9d3"/>
  <rect x="24" y="310" width="342" height="70" rx="8" fill="#ffffff" stroke="#f2d9d3"/>
  <rect x="24" y="392" width="342" height="70" rx="8" fill="#ffffff" stroke="#f2d9d3"/>
  <rect x="24" y="474" width="342" height="60" rx="8" fill="#ffffff" stroke="#f2d9d3"/>
  <rect x="292" y="490" width="44" height="28" rx="14" fill="#e95c43"/>
  <circle cx="322" cy="504" r="11" fill="#ffffff"/>
  <rect x="24" y="546" width="342" height="60" rx="8" fill="#ffffff" stroke="#f2d9d3"/>
  <rect y="760" width="390" height="84" fill="#fff3ee"/>
</svg>
